HIERARCHY
ROOT Hips
{
  OFFSET 0 0 0
  CHANNELS 6 Xposition Yposition Zposition Zrotation Xrotation Yrotation
  JOINT Spine
  {
    OFFSET 0 10 0
    CHANNELS 3 Zrotation Xrotation Yrotation
    JOINT Neck
    {
      OFFSET 0 30 0
      CHANNELS 3 Zrotation Xrotation Yrotation
      JOINT Head
      {
        OFFSET 0 8 0
        CHANNELS 3 Zrotation Xrotation Yrotation
        End Site
        {
          OFFSET 0 10 0
        }
      }
    }
    JOINT LeftArm
    {
      OFFSET 15 30 0
      CHANNELS 3 Zrotation Xrotation Yrotation
      JOINT LeftForeArm
      {
        OFFSET 25 0 0
        CHANNELS 3 Zrotation Xrotation Yrotation
        JOINT LeftHand
        {
          OFFSET 25 0 0
          CHANNELS 3 Zrotation Xrotation Yrotation
          End Site
          {
            OFFSET 10 0 0
          }
        }
      }
    }
    JOINT RightArm
    {
      OFFSET -15 30 0
      CHANNELS 3 Zrotation Xrotation Yrotation
      JOINT RightForeArm
      {
        OFFSET -25 0 0
        CHANNELS 3 Zrotation Xrotation Yrotation
        JOINT RightHand
        {
          OFFSET -25 0 0
          CHANNELS 3 Zrotation Xrotation Yrotation
          End Site
          {
            OFFSET -10 0 0
          }
        }
      }
    }
  }
  JOINT LeftUpLeg
  {
    OFFSET 10 -10 0
    CHANNELS 3 Zrotation Xrotation Yrotation
    JOINT LeftLeg
    {
      OFFSET 0 -35 0
      CHANNELS 3 Zrotation Xrotation Yrotation
      JOINT LeftToe
      {
        OFFSET 0 -40 0
        CHANNELS 3 Zrotation Xrotation Yrotation
	JOINT LeftToeEnd
	{
          OFFSET 0 0 0
          CHANNELS 3 Zrotation Xrotation Yrotation
          End Site
          {
            OFFSET 0 0 15
          }
        }
      }
    }
  }
  JOINT RightUpLeg
  {
    OFFSET -10 -10 0
    CHANNELS 3 Zrotation Xrotation Yrotation
    JOINT RightLeg
    {
      OFFSET 0 -35 0
      CHANNELS 3 Zrotation Xrotation Yrotation
      JOINT RightToe
      {
        OFFSET 0 -40 0
        CHANNELS 3 Zrotation Xrotation Yrotation
        JOINT RightToeEnd
	{
          OFFSET 0 0 0
          CHANNELS 3 Zrotation Xrotation Yrotation
          End Site
          {
            OFFSET 0 0 15
          }
        }
      }
    }
  }
}
MOTION
Frames:	10
Frame Time:	0.0333333
-32.8375	81.8931	70.1666	-146.838	29.7744	83.6203	-6.55354	8.84179	11.1822	-15.4265	-58.294	-5.34388	18.3681	7.32805	4.0242	8.905	-42.6218	-27.6579	20.9969	-4.94706	-62.2233	85.1167	28.3043	46.4363	-66.7931	-55.301	-10.8034	-18.7368	7.03011	40.6869	-77.1072	4.47197	-8.9533	107.098	-46.4775	51.1131	1.20045	23.1744	6.31665	4.94736	-35.026	50.0119	0.00E+00	0.00E+00	0.00E+00	-12.0742	9.52045	-14.9922	-0.818597	22.4411	-7.00784	-6.11859	-8.12596	-36.8287	0	0	0
-35.3966	81.576	65.2408	-142.149	36.1289	81.2997	-10.5181	9.85537	8.49392	-10.3419	-57.6891	-2.42103	16.8428	8.75419	5.05028	8.35347	-41.7991	-26.8576	20.8144	-6.19764	-65.3766	80.2712	30.8919	50.8175	-61.453	-55.4057	-13.3042	-20.8601	4.65388	40.8606	-73.8238	8.23167	-9.18465	109.366	-43.253	58.6422	1.00648	18.0902	5.71409	-1.50495	-28.0221	46.3828	0.00E+00	0.00E+00	0.00E+00	-11.3994	2.75439	-13.9095	-1.0193	35.6109	-5.97273	-5.20987	-11.2055	-35.8371	0	0	0
-37.1702	79.7695	59.3013	-136.506	40.449	78.3042	-11.2466	11.0805	5.76739	-3.85556	-55.1873	1.21533	14.0482	7.65787	5.666	7.70006	-40.9317	-27.9754	24.9378	-2.57334	-63.1223	75.3452	32.4744	60.5463	-55.02	-50.2076	-15.5143	-22.9116	2.57088	41.394	-70.4623	10.2266	-13.4061	110.571	-43.1988	66.0904	0.492391	16.0254	5.01374	-4.35946	-22.3545	36.3405	0.00E+00	0.00E+00	0.00E+00	-9.13607	-2.39628	-14.2072	-1.04905	43.5892	-4.80685	-4.64188	-13.8933	-31.8159	0	0	0
-38.2994	78.4101	52.7813	-131.219	42.2054	74.4956	-7.23395	11.9248	2.87193	-2.88988	-54.5915	2.01813	13.3406	8.8361	7.25391	3.72667	-40.3603	-30.0699	28.8901	1.71073	-60.3619	70.1756	33.3925	67.8222	-47.2626	-44.1813	-15.9771	-24.5504	0.773896	41.6679	-67.1987	13.1571	-15.6297	117.415	-46.3465	73.8063	-0.314682	25.8365	6.08341	3.80463	-31.6816	32.2833	0.00E+00	0.00E+00	0.00E+00	-3.33304	-9.9424	-12.2933	-1.30566	51.3698	-4.00069	-2.66135	-13.4318	-31.517	0	0	0
-38.9283	78.2437	47.1268	-126.587	45.2539	73.2794	-8.17856	13.8115	-1.14994	-2.34323	-54.4333	-0.661026	17.0424	8.02437	6.37137	2.53336	-42.7993	-33.6613	29.9071	6.0977	-57.1127	66.5355	32.3857	71.1618	-35.2662	-41.3194	-16.7184	-25.3421	-0.350743	40.5338	-63.351	14.3778	-19.4896	124.796	-52.8875	79.8274	-0.518188	33.9535	5.58996	12.2124	-34.9392	38.9268	0.00E+00	0.00E+00	0.00E+00	3.39322	-20.2235	-8.66397	-1.36416	58.683	-2.99461	-1.66612	-14.771	-30.7945	0	0	0
-39.7149	78.4214	41.5147	-122.259	47.7248	75.2016	-9.56082	16.8256	-7.44459	4.46082	-54.6664	-0.0699586	15.6496	8.9308	6.78673	-7.52153	-51.669	-42.918	17.5577	1.30572	-54.8023	72.4309	36.6236	48.8442	-21.7749	-42.3098	-15.8297	-26.1269	-1.53329	39.6494	-59.8219	13.5172	-24.985	137.485	-56.4949	98.7707	-0.42616	39.0102	4.24859	9.43836	-31.5642	33.2921	0.00E+00	0.00E+00	0.00E+00	10.5384	-29.1813	-9.44291	-1.11492	61.373	-2.3634	-1.49323	-16.8219	-31.8031	0	0	0
-40.1951	78.773	37.0633	-115.267	50.5198	74.7719	-9.18165	21.6096	-11.6119	5.62667	-55.8201	-0.656243	15.4018	10.2557	7.09436	-2.28827	-51.7678	-35.429	15.3559	-0.688603	-54.9742	67.3446	31.2479	51.2272	-13.0833	-41.2777	-18.5826	-26.9517	-2.49563	39.2702	-58.2701	13.1991	-27.5326	143.281	-59.0657	114.408	-0.474305	41.0242	3.22759	5.722	-28.2987	25.9066	0.00E+00	0.00E+00	0.00E+00	14.1993	-33.1497	-15.0068	-0.820873	56.5484	-2.34649	1.89034	-12.7001	-30.2259	0	0	0
-40.9249	79.268	33.3309	-105.204	54.351	68.1285	-10.1273	25.9823	-10.6333	1.88669	-56.0632	-3.4507	17.3346	9.4226	5.62042	7.02943	-44.5587	-20.7568	16.9248	-1.28002	-55.8767	64.8302	27.5032	58.7511	-7.81696	-38.9155	-23.1621	-26.896	-2.54427	38.5736	-58.5431	13.7642	-26.7816	142.55	-62.4253	117.672	-0.616397	43.7934	2.49388	4.7828	-26.161	24.8872	0.00E+00	0.00E+00	0.00E+00	16.0938	-33.2184	-17.3803	-0.554218	49.3412	-2.30156	4.13545	-9.1562	-27.3302	0	0	0
-42.001	79.5515	29.7101	-96.8682	57.371	58.5913	-11.2725	25.7992	-7.53942	2.8045	-52.8127	-2.60007	16.5621	7.68499	4.1194	11.4945	-31.5545	-9.13787	18.6542	-2.13912	-57.0716	60.1369	20.7479	71.876	-0.943284	-36.7302	-23.0984	-26.8841	-2.80457	38.3008	-58.614	13.6953	-26.9333	141.219	-63.1555	115.35	-0.448428	47.706	1.6686	5.03389	-23.9628	27.7746	0.00E+00	0.00E+00	0.00E+00	19.7622	-32.9778	-14.7375	-0.359119	43.6538	-2.19473	5.43649	-7.15709	-26.0051	0	0	0
-42.7218	79.9301	26.4872	-85.5435	59.8739	43.4338	-12.9547	24.8413	-4.03134	1.21569	-50.3277	-2.87661	18.1431	8.51273	2.54092	7.99827	-22.9383	-3.58298	19.0268	-2.49411	-56.8629	59.8085	19.8049	73.7446	5.85273	-34.6853	-18.7942	-26.6226	-2.82246	37.887	-58.4267	14.1962	-26.465	134.813	-62.6169	108.097	-0.190736	52.5581	0.791994	5.71693	-23.3856	29.6031	0.00E+00	0.00E+00	0.00E+00	22.208	-30.319	-10.7614	-0.322035	38.9455	-1.67314	6.38812	-5.87509	-20.9876	0	0	0
